# xmcd
#
# Track frame offsets: 
#        150
#        9437
#        19377
#        31825
#        41539
#        52209
#        65715
#        76573
#        88766
#        100687
#        111930
#        122875
#        135513
#        150728
#        163126
#
# Disc length: 2330 seconds
#
# Revision: 0
# Processed by: cddbd v1.5.2PL0 Copyright (c) Steve Scherf et al.
# Submitted via: ExactAudioCopyFreeDBPlugin 1.0
#
DISCID=bf09180f
DTITLE=Gladys Knight and The Pips - The Empress of Soul - CD 1
DYEAR=2016
DGENRE=Soul
TTITLE0=Every Beat of My Heart
TTITLE1=Operator
TTITLE2=Come See About Me
TTITLE3=Runnin' Around
TTITLE4=Morning, Noon and Night
TTITLE5=Stop And Get A Hold Of Myself
TTITLE6=One More Lovely Night
TTITLE7=Love Me Again
TTITLE8=What Shall I Do
TTITLE9=How Do You Say Goodbye
TTITLE10=Ching Chong
TTITLE11=I Really Didn't Mean It
TTITLE12=Guess Who
TTITLE13=Darlin'
TTITLE14=It Hurts So Bad
EXTD=
EXTT0=
EXTT1=
EXTT2=
EXTT3=
EXTT4=
EXTT5=
EXTT6=
EXTT7=
EXTT8=
EXTT9=
EXTT10=
EXTT11=
EXTT12=
EXTT13=
EXTT14=
PLAYORDER=
